<?xml version="1.0" standalone="no"?>
<!DOCTYPE svg PUBLIC "-//W3C//DTD SVG 20010904//EN"
 "http://www.w3.org/TR/2001/REC-SVG-20010904/DTD/svg10.dtd">
<svg version="1.0" xmlns="http://www.w3.org/2000/svg"
 width="1008.000000pt" height="1157.000000pt" viewBox="0 0 1008.000000 1157.000000"
 preserveAspectRatio="xMidYMid meet">

<g transform="translate(0.000000,1157.000000) scale(0.100000,-0.100000)"
fill="#000000" stroke="none">
<path d="M3770 10557 c-93 -31 -157 -72 -222 -140 -156 -161 -191 -398 -91
-607 35 -73 160 -198 233 -233 212 -102 453 -63 615 99 104 105 155 228 155
379 0 235 -158 441 -389 509 -82 24 -220 21 -301 -7z"/>
<path d="M4637 10504 c-16 -16 -28 -42 -32 -67 -3 -23 -5 -214 -3 -425 l3
-384 33 -29 32 -29 411 0 c445 0 453 1 477 55 9 19 12 137 12 426 0 426 -2
443 -49 469 -13 6 -171 10 -439 10 l-419 0 -26 -26z"/>
<path d="M5797 10519 c-45 -26 -47 -45 -47 -468 0 -289 3 -407 12 -426 24 -54
32 -55 477 -55 l411 0 32 29 33 29 3 394 c2 216 0 407 -3 424 -3 18 -17 44
-32 58 l-26 26 -421 0 c-267 0 -427 -4 -439 -11z"/>
<path d="M3514 9380 c-12 -4 -31 -21 -43 -36 -21 -26 -21 -33 -21 -436 0 -451
1 -456 61 -477 21 -7 163 -11 426 -11 420 0 437 2 463 49 6 13 10 169 10 436
0 458 1 452 -62 474 -37 13 -802 14 -834 1z"/>
<path d="M4660 9373 c-57 -29 -59 -44 -59 -473 -1 -347 1 -388 17 -420 30 -61
26 -60 479 -58 l413 3 27 28 28 27 0 425 0 425 -28 27 -27 28 -408 3 c-373 2
-410 1 -442 -15z"/>
<path d="M3500 8217 c-49 -25 -50 -34 -50 -475 l0 -414 29 -29 29 -29 422 0
422 0 29 29 29 29 0 421 0 420 -24 28 -24 28 -419 3 c-323 1 -424 -1 -443 -11z"/>
<path d="M4638 8201 l-33 -29 -3 -384 c-2 -211 0 -402 3 -425 4 -25 16 -51 32
-67 l26 -26 419 0 c268 0 426 4 439 10 47 26 49 43 49 469 0 289 -3 407 -12
426 -24 54 -32 55 -477 55 l-411 0 -32 -29z"/>
<path d="M5803 8218 c-51 -24 -53 -45 -53 -473 0 -422 2 -439 49 -465 13 -6
170 -10 439 -10 l419 0 26 24 c14 13 28 39 32 57 3 19 5 211 3 427 l-3 394
-33 29 -32 29 -413 -1 c-269 0 -420 -4 -434 -11z"/>
<path d="M3479 7041 l-29 -29 0 -412 c0 -449 1 -455 57 -479 21 -8 143 -11
442 -9 l413 3 24 28 24 28 0 419 0 418 -26 31 -26 31 -425 0 -425 0 -29 -29z"/>
<path d="M4643 7055 c-12 -9 -27 -32 -33 -53 -6 -22 -10 -186 -10 -417 0 -342
2 -383 18 -415 9 -19 28 -40 42 -47 19 -10 127 -13 434 -13 l408 0 34 34 35
35 -3 421 -3 422 -28 24 -28 24 -422 0 c-363 0 -426 -2 -444 -15z"/>
<path d="M3304 5451 c-167 -43 -247 -185 -199 -349 24 -79 86 -136 232 -210
134 -69 163 -95 163 -152 0 -30 -6 -44 -31 -64 -56 -47 -188 -33 -371 39 -16
7 -18 -1 -18 -88 l0 -96 54 -20 c76 -28 206 -43 284 -32 193 28 286 118 286
276 0 135 -51 196 -245 295 -154 78 -188 118 -158 184 28 60 135 71 264 26 32
-11 63 -19 68 -17 8 2 67 133 67 148 0 4 -35 19 -77 34 -61 21 -101 28 -183
31 -58 2 -119 0 -136 -5z"/>
<path d="M7943 5445 c-153 -43 -245 -140 -287 -302 -20 -78 -21 -257 -1 -341
36 -153 134 -264 270 -304 110 -32 263 -27 369 12 75 28 163 110 200 185 75
153 75 397 0 550 -37 75 -125 156 -201 186 -75 29 -270 37 -350 14z m230 -166
c50 -14 100 -59 128 -117 22 -43 24 -60 24 -192 0 -132 -2 -149 -24 -192 -28
-58 -78 -103 -128 -117 -115 -32 -224 6 -274 95 -57 100 -62 311 -10 411 52
102 163 146 284 112z"/>
<path d="M1610 4970 l0 -480 105 0 105 0 -2 478 -3 477 -102 3 -103 3 0 -481z"/>
<path d="M2050 4970 l0 -480 91 0 90 0 -3 359 c-2 287 -1 356 9 338 7 -12 99
-173 206 -357 l193 -335 132 -3 132 -3 0 481 0 481 -92 -3 -93 -3 2 -347 c0
-192 0 -348 -2 -348 -1 0 -94 158 -205 350 l-203 350 -128 0 -129 0 0 -480z"/>
<path d="M3797 5443 c-4 -3 -7 -42 -7 -85 l0 -78 130 0 130 0 0 -395 0 -395
105 0 105 0 0 395 0 395 130 0 130 0 0 85 0 85 -358 0 c-197 0 -362 -3 -365
-7z"/>
<path d="M4670 4970 l0 -480 105 0 105 0 -2 478 -3 477 -102 3 -103 3 0 -481z"/>
<path d="M5017 5443 c-4 -3 -7 -42 -7 -85 l0 -78 130 0 130 0 0 -395 0 -395
105 0 105 0 0 395 0 395 130 0 130 0 0 85 0 85 -358 0 c-197 0 -362 -3 -365
-7z"/>
<path d="M5882 5093 l3 -358 29 -63 c50 -109 147 -174 288 -192 196 -24 367
49 435 188 l28 57 3 363 3 363 -103 -3 -103 -3 -5 -345 c-5 -321 -6 -347 -25
-378 -31 -51 -91 -75 -175 -70 -82 4 -114 24 -147 88 -23 43 -23 52 -23 377
l0 333 -106 0 -105 0 3 -357z"/>
<path d="M6817 5443 c-4 -3 -7 -42 -7 -85 l0 -78 130 0 130 0 0 -395 0 -395
105 0 105 0 0 395 0 395 130 0 130 0 0 85 0 85 -358 0 c-197 0 -362 -3 -365
-7z"/>
<path d="M2280 3820 l0 -480 100 0 100 0 0 190 0 190 165 0 166 0 -3 83 -3 82
-162 3 -163 2 0 120 0 120 175 0 175 0 0 85 0 85 -275 0 -275 0 0 -480z"/>
<path d="M3010 3820 l0 -480 275 0 275 0 0 85 0 85 -170 0 -170 0 0 120 0 120
160 0 160 0 0 85 0 85 -160 0 -160 0 0 105 0 105 170 0 170 0 0 85 0 85 -275
0 -275 0 0 -480z"/>
<path d="M3760 3820 l0 -480 188 0 c155 0 203 4 266 20 227 58 339 212 340
465 0 253 -123 411 -357 459 -53 11 -131 16 -257 16 l-180 0 0 -480z m437 285
c48 -19 95 -68 119 -123 9 -20 18 -75 21 -122 10 -161 -30 -262 -127 -314 -45
-24 -68 -30 -147 -34 l-93 -5 0 313 0 313 93 -5 c53 -3 110 -13 134 -23z"/>
<path d="M4760 3820 l0 -480 275 0 275 0 0 85 0 85 -170 0 -170 0 0 120 0 120
160 0 160 0 0 85 0 85 -160 0 -160 0 0 105 0 105 170 0 170 0 0 85 0 85 -275
0 -275 0 0 -480z"/>
<path d="M5510 3820 l0 -480 105 0 105 0 0 180 0 180 53 0 52 -1 110 -179 110
-179 113 -1 c61 0 112 2 112 5 0 3 -61 96 -137 207 -114 168 -133 202 -120
209 103 58 157 144 157 249 0 85 -21 145 -67 192 -73 75 -172 98 -425 98
l-168 0 0 -480z m400 285 c39 -20 50 -43 50 -102 0 -86 -41 -118 -163 -129
l-77 -7 0 133 0 133 80 -6 c44 -4 93 -13 110 -22z"/>
<path d="M6451 3832 c-90 -257 -166 -473 -168 -479 -4 -10 21 -13 106 -13
l110 0 36 115 36 115 172 -2 172 -3 34 -112 35 -113 108 0 c60 0 108 4 108 9
0 5 -74 220 -165 477 -91 257 -165 469 -165 471 0 1 -57 3 -127 3 l-128 0
-164 -468z m354 105 c32 -103 55 -190 53 -193 -3 -2 -57 -3 -120 -2 l-114 3
57 190 c32 105 58 192 59 194 1 13 13 -22 65 -192z"/>
<path d="M7330 3820 l0 -480 295 0 295 0 0 85 0 85 -190 0 -190 0 -2 393 -3
392 -102 3 -103 3 0 -481z"/>
<path d="M6960 2813 l0 -146 -23 21 c-77 72 -233 67 -304 -9 -93 -102 -88
-355 9 -446 74 -69 239 -69 297 0 20 25 31 21 31 -13 0 -28 3 -30 35 -30 l35
0 0 385 0 385 -40 0 -40 0 0 -147z m-80 -161 c56 -27 75 -78 75 -197 0 -116
-17 -158 -75 -187 -78 -40 -166 -11 -205 67 -28 59 -26 194 4 253 39 76 123
103 201 64z"/>
<path d="M3141 2916 c-7 -8 -11 -30 -9 -48 2 -25 9 -35 30 -42 49 -17 84 35
58 85 -13 23 -62 26 -79 5z"/>
<path d="M4483 2905 c-164 -51 -252 -192 -240 -384 10 -174 83 -281 218 -322
62 -19 87 -21 183 -16 61 3 130 11 154 18 l42 11 0 179 0 179 -126 0 -125 0 3
-37 3 -38 83 -3 82 -3 0 -108 0 -108 -31 -7 c-17 -3 -70 -6 -118 -6 -135 0
-205 41 -253 145 -31 69 -32 218 -2 285 23 51 71 103 118 127 49 27 197 30
268 6 l56 -19 17 34 c9 19 12 38 8 43 -38 35 -255 51 -340 24z"/>
<path d="M2520 2550 l0 -360 45 0 45 0 0 150 0 151 72 -3 72 -3 85 -147 86
-148 52 0 52 0 -89 149 c-49 81 -92 155 -95 163 -4 10 4 19 25 28 60 25 110
106 110 180 0 46 -21 100 -51 135 -45 51 -104 65 -271 65 l-138 0 0 -360z
m310 262 c66 -32 78 -141 22 -202 -30 -33 -94 -50 -188 -50 l-54 0 0 141 0
142 93 -7 c52 -4 107 -15 127 -24z"/>
<path d="M3506 2725 c-93 -33 -149 -131 -148 -260 1 -177 92 -285 241 -285
144 0 227 73 251 222 24 153 -41 287 -159 327 -46 15 -137 13 -185 -4z m189
-81 c47 -31 68 -88 68 -185 0 -72 -3 -92 -24 -129 -28 -51 -77 -80 -134 -80
-57 0 -106 29 -134 80 -21 37 -24 57 -24 130 0 73 4 94 24 131 32 58 77 82
146 75 28 -2 63 -12 78 -22z"/>
<path d="M5180 2729 c-14 -6 -44 -29 -67 -52 l-43 -41 0 47 0 47 -40 0 -40 0
0 -270 0 -270 45 0 45 0 0 168 c0 154 2 171 23 212 30 61 76 90 142 90 51 0
53 1 59 31 3 17 6 35 6 40 0 12 -99 10 -130 -2z"/>
<path d="M5540 2734 c-95 -31 -102 -36 -95 -63 10 -40 16 -41 75 -21 130 45
210 7 210 -100 0 -24 -5 -28 -37 -34 -21 -3 -59 -6 -84 -6 -154 0 -256 -94
-230 -210 17 -76 79 -120 168 -120 68 0 112 15 150 51 33 33 37 32 45 -16 2
-14 12 -21 36 -23 l32 -3 0 213 c0 189 -3 218 -20 256 -26 56 -79 82 -170 81
-36 0 -72 -3 -80 -5z m186 -336 c-10 -73 -31 -106 -79 -129 -97 -43 -180 -12
-180 69 0 78 54 109 197 111 l69 1 -7 -52z"/>
<path d="M6135 2721 c-22 -10 -46 -25 -54 -34 -17 -21 -31 -13 -31 19 0 21 -4
24 -40 24 l-40 0 0 -270 0 -270 45 0 45 0 0 168 c0 185 9 232 49 273 34 34
105 47 162 30 64 -19 69 -39 69 -271 l0 -200 45 0 45 0 0 208 c0 196 -1 210
-22 252 -42 83 -173 117 -273 71z"/>
<path d="M7330 2725 c-77 -35 -123 -102 -139 -207 -26 -158 43 -293 168 -328
53 -15 150 -12 209 5 51 16 52 16 52 55 0 38 -1 39 -24 30 -13 -5 -51 -14 -84
-20 -131 -23 -214 29 -236 147 l-5 33 187 2 187 3 -2 63 c-2 85 -39 163 -96
200 -50 33 -160 42 -217 17z m155 -71 c37 -17 65 -66 65 -113 l0 -31 -136 0
-137 0 6 36 c16 99 113 151 202 108z"/>
<path d="M3130 2460 l0 -270 45 0 45 0 0 270 0 270 -45 0 -45 0 0 -270z"/>
<path d="M4050 1603 l0 -146 -23 21 c-77 72 -233 67 -304 -9 -93 -102 -88
-355 9 -446 74 -69 239 -69 297 0 20 25 31 21 31 -13 0 -28 3 -30 35 -30 l35
0 0 385 0 385 -40 0 -40 0 0 -147z m-80 -161 c56 -27 75 -78 75 -197 0 -116
-17 -158 -75 -187 -78 -40 -166 -11 -205 67 -28 59 -26 194 4 253 39 76 123
103 201 64z"/>
<path d="M6357 1743 c-4 -3 -7 -177 -7 -385 l0 -378 45 0 45 0 0 385 0 385
-38 0 c-21 0 -42 -3 -45 -7z"/>
<path d="M5249 1683 c-84 -43 -119 -131 -88 -224 17 -50 62 -92 132 -124 169
-76 187 -87 202 -115 31 -59 10 -126 -49 -154 -44 -21 -162 -21 -239 -1 -32 8
-60 15 -62 15 -3 0 -5 -18 -5 -40 0 -39 1 -39 52 -55 59 -17 195 -20 249 -5
113 32 178 135 150 240 -18 67 -60 103 -191 160 -131 57 -160 82 -160 141 0
51 13 75 50 94 37 19 142 19 206 0 63 -19 61 -19 68 9 3 13 8 31 11 39 9 21
-95 47 -191 47 -68 0 -89 -4 -135 -27z"/>
<path d="M4426 1515 c-93 -33 -149 -131 -148 -260 1 -177 92 -285 241 -285
144 0 227 73 251 222 24 153 -41 287 -159 327 -46 15 -137 13 -185 -4z m189
-81 c47 -31 68 -88 68 -185 0 -72 -3 -92 -24 -129 -60 -107 -208 -107 -268 0
-21 37 -24 57 -24 130 0 73 4 94 24 131 32 58 77 82 146 75 28 -2 63 -12 78
-22z"/>
<path d="M5730 1312 c0 -196 1 -210 23 -252 30 -60 88 -90 172 -90 63 0 129
23 154 53 17 21 31 13 31 -19 0 -21 4 -24 40 -24 l40 0 0 270 0 270 -44 0 -44
0 -4 -187 c-3 -204 -11 -235 -63 -269 -34 -22 -105 -29 -149 -14 -61 20 -66
41 -66 270 l0 200 -45 0 -45 0 0 -208z"/>
</g>
</svg>
