<?xml version="1.0" standalone="no"?>
<!DOCTYPE svg PUBLIC "-//W3C//DTD SVG 20010904//EN"
 "http://www.w3.org/TR/2001/REC-SVG-20010904/DTD/svg10.dtd">
<svg version="1.0" xmlns="http://www.w3.org/2000/svg"
 width="200.000000pt" height="200.000000pt" viewBox="0 0 200.000000 200.000000"
 preserveAspectRatio="xMidYMid meet">

<g transform="translate(0.000000,200.000000) scale(0.100000,-0.100000)"
fill="#000000" stroke="none">
<path d="M942 1710 c-85 -20 -152 -99 -152 -180 0 -61 22 -102 84 -155 55 -48
77 -88 74 -132 -2 -23 -4 -23 -158 -23 -131 -1 -152 -3 -138 -14 10 -7 55 -21
100 -31 145 -32 369 -20 473 27 28 12 22 13 -85 18 -63 4 -105 7 -93 8 30 3
83 50 99 89 27 63 15 130 -32 186 -24 29 -26 39 -8 81 6 17 4 18 -22 12 -35
-9 -61 -40 -70 -83 -5 -25 0 -45 20 -83 14 -27 26 -64 26 -82 0 -40 -30 -92
-62 -109 l-23 -12 23 25 c31 34 45 88 32 122 -5 14 -25 50 -45 78 -60 90 -44
189 38 225 24 11 33 19 25 24 -24 13 -73 17 -106 9z"/>
<path d="M736 1500 c-28 -34 -42 -87 -31 -127 11 -44 68 -90 127 -103 29 -6
62 -17 74 -25 27 -17 35 -10 27 24 -9 38 -23 52 -79 77 -74 33 -97 66 -92 132
3 28 4 52 2 52 -1 0 -14 -14 -28 -30z"/>
<path d="M871 1120 c-17 -10 -7 -40 13 -40 7 0 16 6 19 14 8 19 -15 37 -32 26z"/>
<path d="M931 1120 c-17 -10 -7 -40 13 -40 7 0 16 6 19 14 8 19 -15 37 -32 26z"/>
<path d="M991 1116 c-14 -17 -7 -36 14 -36 22 0 29 20 13 36 -13 13 -16 13
-27 0z"/>
<path d="M1357 1049 c-116 -28 -174 -108 -165 -230 8 -112 93 -189 210 -189
122 0 203 67 221 183 10 65 7 67 -114 67 l-109 0 0 -50 c0 -50 0 -50 33 -50
30 -1 31 -1 13 -15 -47 -35 -106 6 -106 73 0 74 56 113 108 76 22 -15 27 -14
83 6 32 12 59 28 59 34 0 16 -48 60 -85 79 -41 20 -103 27 -148 16z"/>
<path d="M1785 1051 c-96 -24 -148 -110 -115 -191 14 -34 34 -48 100 -70 25
-8 45 -19 45 -25 0 -19 -56 -17 -94 4 l-39 20 -21 -56 c-12 -30 -19 -59 -16
-63 13 -21 109 -42 171 -38 98 6 157 60 157 143 0 66 -26 96 -102 119 -36 10
-60 23 -58 30 6 18 43 19 77 1 18 -9 33 -15 34 -13 14 19 43 105 38 110 -8 8
-121 39 -137 37 -5 -1 -23 -4 -40 -8z"/>
<path d="M32 891 c3 -143 5 -163 24 -187 39 -53 70 -68 144 -72 78 -5 140 18
173 63 26 36 38 119 35 242 l-3 108 -75 0 -75 0 -5 -140 -5 -140 -27 -3 c-35
-4 -37 7 -41 163 l-2 120 -73 3 -73 3 3 -160z"/>
<path d="M480 845 l0 -205 75 0 75 0 0 70 0 70 55 0 55 0 0 55 0 55 -55 0
c-48 0 -55 2 -55 20 0 18 7 20 60 20 l60 0 0 60 0 60 -135 0 -135 0 0 -205z"/>
<path d="M800 845 l0 -205 70 0 69 0 3 62 3 62 33 -62 33 -62 80 0 c43 0 79 2
79 5 0 2 -20 36 -45 74 -25 38 -45 73 -45 78 0 4 10 13 22 18 12 6 29 27 36
47 29 76 -13 155 -94 177 -21 6 -85 11 -141 11 l-103 0 0 -205z m184 89 c21
-8 21 -60 0 -68 -35 -13 -44 -7 -44 34 0 41 9 47 44 34z"/>
<path d="M23 535 c-8 -23 4 -87 19 -97 25 -15 57 -8 73 16 21 32 16 90 -7 94
-15 3 -18 -4 -18 -42 0 -34 -4 -46 -15 -46 -11 0 -15 12 -15 45 0 34 -4 45
-15 45 -9 0 -18 -7 -22 -15z"/>
<path d="M144 536 c-3 -7 -4 -33 -2 -57 2 -32 8 -45 21 -47 13 -3 17 4 17 30
l0 33 26 -32 c40 -51 54 -44 54 27 0 47 -3 60 -15 60 -10 0 -15 -10 -15 -32
l-1 -33 -28 33 c-29 34 -48 40 -57 18z"/>
<path d="M280 490 c0 -47 3 -60 15 -60 12 0 15 13 15 60 0 47 -3 60 -15 60
-12 0 -15 -13 -15 -60z"/>
<path d="M336 513 c9 -21 20 -48 25 -60 17 -46 36 -26 75 80 12 32 -25 18 -40
-15 l-14 -33 -12 33 c-8 21 -19 32 -31 32 -18 0 -19 -2 -3 -37z"/>
<path d="M450 490 l0 -60 35 0 c40 0 52 30 13 31 l-23 0 23 9 c12 5 22 14 22
20 0 6 -10 15 -22 20 l-23 9 23 0 c39 1 27 31 -13 31 l-35 0 0 -60z"/>
<path d="M537 544 c-12 -12 -8 -102 5 -110 6 -4 17 1 23 10 11 14 13 15 19 1
3 -8 15 -15 26 -15 20 0 20 2 6 21 -11 17 -12 25 -3 40 9 14 9 24 1 37 -11 17
-64 29 -77 16z"/>
<path d="M652 538 c-19 -19 -14 -49 8 -55 26 -7 26 -23 -1 -23 -27 0 -19 -24
10 -28 51 -8 69 48 24 72 -27 15 -27 15 -5 16 14 0 22 5 20 13 -6 17 -41 20
-56 5z"/>
<path d="M734 536 c-3 -7 -4 -33 -2 -57 2 -32 8 -45 21 -47 15 -3 17 5 17 57
0 48 -3 61 -15 61 -9 0 -18 -6 -21 -14z"/>
<path d="M790 490 l0 -60 30 0 c34 0 70 31 70 60 0 29 -36 60 -70 60 l-30 0 0
-60z m55 0 c0 -13 -6 -25 -12 -27 -9 -3 -13 6 -13 27 0 21 4 30 13 28 6 -3 12
-15 12 -28z"/>
<path d="M911 494 c-23 -62 -21 -75 9 -56 24 15 50 16 50 2 0 -5 9 -10 21 -10
11 0 19 4 17 8 -1 4 -12 31 -22 60 -27 70 -47 69 -75 -4z"/>
<path d="M1020 490 c0 -59 0 -60 28 -60 15 0 38 7 50 16 46 32 12 104 -48 104
l-30 0 0 -60z m60 15 c10 -12 10 -18 0 -30 -19 -23 -30 -18 -30 15 0 33 11 38
30 15z"/>
<path d="M1134 536 c-3 -7 -4 -33 -2 -57 3 -42 5 -44 36 -47 23 -2 32 1 32 12
0 8 -8 17 -17 19 -17 4 -17 5 0 6 10 1 17 9 17 20 0 11 -8 22 -17 24 -17 4
-17 5 0 6 9 0 17 8 17 16 0 19 -59 20 -66 1z"/>
<path d="M1300 490 c0 -47 3 -60 15 -60 8 0 15 8 15 19 0 10 9 21 20 24 27 7
25 25 -2 37 l-23 9 23 0 c39 1 27 31 -13 31 l-35 0 0 -60z"/>
<path d="M1380 490 l0 -60 35 0 c24 0 35 5 35 15 0 8 -8 15 -17 15 -15 0 -14
2 3 15 19 15 19 15 0 30 -17 13 -18 15 -3 15 9 0 17 7 17 15 0 10 -11 15 -35
15 l-35 0 0 -60z"/>
<path d="M1464 536 c-3 -7 -4 -33 -2 -57 3 -41 5 -44 34 -47 25 -2 37 3 53 24
27 34 26 40 -4 69 -26 27 -72 33 -81 11z m61 -46 c0 -13 -6 -25 -12 -27 -9 -3
-13 6 -13 27 0 21 4 30 13 28 6 -3 12 -15 12 -28z"/>
<path d="M1580 490 l0 -60 35 0 c40 0 52 30 13 31 l-23 0 23 9 c12 5 22 14 22
20 0 6 -10 15 -22 20 l-23 9 23 0 c39 1 27 31 -13 31 l-35 0 0 -60z"/>
<path d="M1660 490 c0 -60 11 -75 37 -49 8 8 13 8 17 0 9 -14 73 -14 81 -1 8
14 42 13 47 -1 2 -6 11 -10 20 -8 14 4 14 10 -6 59 -29 71 -48 75 -71 13 -23
-62 -31 -70 -44 -45 -7 14 -8 23 -1 27 17 10 11 44 -9 55 -11 5 -31 10 -45 10
-25 0 -26 -2 -26 -60z m165 0 c3 -5 1 -10 -4 -10 -6 0 -11 5 -11 10 0 6 2 10
4 10 3 0 8 -4 11 -10z"/>
<path d="M1890 489 l0 -60 32 3 c35 3 52 28 19 28 -18 0 -21 6 -21 45 0 33 -4
45 -15 45 -12 0 -15 -13 -15 -61z"/>
<path d="M27 404 c-4 -4 -7 -31 -7 -61 l0 -53 33 0 c60 0 93 49 60 89 -19 22
-73 38 -86 25z m61 -57 c-5 -34 -28 -33 -28 2 0 23 4 29 16 24 8 -3 14 -15 12
-26z"/>
<path d="M162 394 c-18 -12 -22 -24 -20 -52 6 -78 110 -78 116 0 2 28 -2 40
-20 52 -12 9 -29 16 -38 16 -9 0 -26 -7 -38 -16z m58 -29 c17 -20 5 -45 -20
-45 -11 0 -23 7 -26 15 -6 15 11 45 26 45 4 0 13 -7 20 -15z"/>
<path d="M320 350 c0 -47 3 -60 15 -60 8 0 15 8 15 18 1 16 1 16 11 0 5 -10
19 -18 31 -18 19 0 19 1 4 24 -10 15 -12 27 -6 31 31 19 -4 65 -49 65 -19 0
-21 -6 -21 -60z m45 20 c3 -5 1 -10 -4 -10 -6 0 -11 5 -11 10 0 6 2 10 4 10 3
0 8 -4 11 -10z"/>
<path d="M427 404 c-4 -4 -7 -31 -7 -61 0 -47 2 -53 20 -53 19 0 21 5 18 57
-3 52 -14 73 -31 57z"/>
<path d="M490 390 c-28 -28 -25 -64 7 -89 30 -24 58 -20 86 11 23 27 22 44 -8
73 -29 30 -58 32 -85 5z m58 -19 c19 -12 11 -45 -12 -49 -24 -5 -37 17 -25 40
11 20 18 22 37 9z"/>
<path d="M673 395 c-62 -43 -1 -142 62 -101 28 19 39 55 18 63 -10 4 -11 8 -3
13 8 5 7 12 -5 24 -20 20 -44 20 -72 1z m50 -22 c4 -3 -1 -12 -11 -19 -15 -12
-15 -15 -2 -23 18 -12 8 -24 -14 -15 -16 6 -22 44 -9 57 8 9 28 9 36 0z"/>
<path d="M787 403 c-4 -3 -7 -30 -7 -60 0 -40 4 -53 15 -53 8 0 15 8 15 18 1
16 1 16 14 0 14 -20 80 -25 91 -8 3 6 15 10 26 10 10 0 19 -4 19 -10 0 -5 7
-10 16 -10 12 0 15 6 10 23 -12 49 -37 97 -50 97 -8 0 -24 -25 -36 -56 -20
-48 -25 -54 -37 -41 -12 11 -12 19 -4 35 6 11 8 27 5 35 -8 21 -63 35 -77 20z
m43 -33 c0 -5 -4 -10 -10 -10 -5 0 -10 5 -10 10 0 6 5 10 10 10 6 0 10 -4 10
-10z"/>
<path d="M1010 350 c0 -47 3 -60 15 -60 10 0 15 10 15 32 l0 33 23 -32 c12
-18 30 -33 40 -33 14 0 17 9 17 60 0 47 -3 60 -15 60 -10 0 -15 -10 -15 -32
l0 -33 -31 33 c-16 17 -34 32 -40 32 -5 0 -9 -27 -9 -60z"/>
<path d="M1147 404 c-4 -4 -7 -31 -7 -61 l0 -53 33 0 c20 0 41 8 50 18 20 22
22 65 4 81 -18 14 -70 25 -80 15z m53 -39 c15 -18 6 -45 -15 -45 -10 0 -15 10
-15 30 0 33 11 38 30 15z"/>
<path d="M1260 351 l0 -61 35 0 c40 0 46 16 13 30 -18 7 -19 9 -5 9 21 1 23
31 2 31 -8 0 -15 5 -15 10 0 6 9 10 21 10 33 0 16 25 -19 28 l-32 3 0 -60z"/>
<path d="M1380 350 l0 -60 33 0 c37 0 67 25 67 56 0 27 -12 41 -43 53 -52 20
-57 16 -57 -49z m58 13 c12 -22 5 -43 -14 -43 -9 0 -14 11 -14 30 0 33 14 40
28 13z"/>
<path d="M1510 390 c-28 -28 -25 -64 7 -89 30 -24 58 -20 86 11 23 27 22 44
-8 73 -29 30 -58 32 -85 5z m68 -44 c-4 -25 -43 -34 -51 -12 -8 20 19 47 39
39 8 -3 14 -15 12 -27z"/>
<path d="M1688 399 c-27 -15 -22 -46 10 -63 l27 -15 -27 -1 c-19 0 -28 -5 -28
-16 0 -12 9 -14 38 -12 32 3 37 7 40 30 3 23 -2 30 -25 39 -19 8 -23 13 -13
16 46 14 45 13 30 23 -19 12 -31 12 -52 -1z"/>
<path d="M1772 354 l3 -59 37 -3 c44 -4 61 19 56 76 -4 54 -32 50 -36 -5 -4
-58 -30 -59 -34 -1 -2 23 -9 43 -16 46 -10 3 -12 -10 -10 -54z"/>
<path d="M1890 350 l0 -60 35 0 c38 0 48 19 15 27 -16 4 -20 14 -20 49 0 32
-4 44 -15 44 -12 0 -15 -13 -15 -60z"/>
</g>
</svg>
